<mxfile host="65bd71144e">
    <diagram name="Página-1" id="VFcy3bCBmrxG0yTugkP6">
        <mxGraphModel dx="1081" dy="787" grid="1" gridSize="10" guides="1" tooltips="1" connect="1" arrows="1" fold="1" page="1" pageScale="1" pageWidth="2336" pageHeight="1654" math="0" shadow="0">
            <root>
                <mxCell id="0"/>
                <mxCell id="1" parent="0"/>
                <mxCell id="I7My5OtGVKia-RhiOEti-5" style="edgeStyle=orthogonalEdgeStyle;rounded=0;orthogonalLoop=1;jettySize=auto;html=1;exitX=0.5;exitY=0.5;exitDx=0;exitDy=0;exitPerimeter=0;" parent="1" source="I7My5OtGVKia-RhiOEti-1" edge="1">
                    <mxGeometry relative="1" as="geometry">
                        <mxPoint x="230" y="289.82608695652175" as="targetPoint"/>
                    </mxGeometry>
                </mxCell>
                <mxCell id="I7My5OtGVKia-RhiOEti-1" value="User" style="shape=umlActor;verticalLabelPosition=bottom;verticalAlign=top;html=1;outlineConnect=0;" parent="1" vertex="1">
                    <mxGeometry x="130" y="260" width="30" height="60" as="geometry"/>
                </mxCell>
                <mxCell id="I7My5OtGVKia-RhiOEti-7" style="edgeStyle=orthogonalEdgeStyle;rounded=0;orthogonalLoop=1;jettySize=auto;html=1;" parent="1" source="I7My5OtGVKia-RhiOEti-6" edge="1">
                    <mxGeometry relative="1" as="geometry">
                        <mxPoint x="420" y="290" as="targetPoint"/>
                    </mxGeometry>
                </mxCell>
                <mxCell id="I7My5OtGVKia-RhiOEti-6" value="Tela de autenticação do usuário." style="rounded=1;whiteSpace=wrap;html=1;" parent="1" vertex="1">
                    <mxGeometry x="230" y="260" width="120" height="60" as="geometry"/>
                </mxCell>
                <mxCell id="I7My5OtGVKia-RhiOEti-28" style="edgeStyle=orthogonalEdgeStyle;rounded=0;orthogonalLoop=1;jettySize=auto;html=1;" parent="1" source="I7My5OtGVKia-RhiOEti-8" edge="1">
                    <mxGeometry relative="1" as="geometry">
                        <mxPoint x="690" y="620.0000000000002" as="targetPoint"/>
                    </mxGeometry>
                </mxCell>
                <mxCell id="I7My5OtGVKia-RhiOEti-76" style="edgeStyle=orthogonalEdgeStyle;rounded=0;orthogonalLoop=1;jettySize=auto;html=1;entryX=0;entryY=0.5;entryDx=0;entryDy=0;" parent="1" source="I7My5OtGVKia-RhiOEti-8" target="I7My5OtGVKia-RhiOEti-79" edge="1">
                    <mxGeometry relative="1" as="geometry">
                        <mxPoint x="845" y="520" as="targetPoint"/>
                    </mxGeometry>
                </mxCell>
                <mxCell id="I7My5OtGVKia-RhiOEti-126" style="edgeStyle=orthogonalEdgeStyle;rounded=0;orthogonalLoop=1;jettySize=auto;html=1;exitX=0.75;exitY=0;exitDx=0;exitDy=0;" parent="1" source="I7My5OtGVKia-RhiOEti-8" edge="1">
                    <mxGeometry relative="1" as="geometry">
                        <mxPoint x="1330" y="360" as="targetPoint"/>
                        <Array as="points">
                            <mxPoint x="720" y="390"/>
                            <mxPoint x="1330" y="390"/>
                        </Array>
                    </mxGeometry>
                </mxCell>
                <mxCell id="I7My5OtGVKia-RhiOEti-8" value="App&lt;br&gt;Tela Inicial" style="rounded=1;whiteSpace=wrap;html=1;" parent="1" vertex="1">
                    <mxGeometry x="630" y="490" width="120" height="60" as="geometry"/>
                </mxCell>
                <mxCell id="I7My5OtGVKia-RhiOEti-11" style="edgeStyle=orthogonalEdgeStyle;rounded=0;orthogonalLoop=1;jettySize=auto;html=1;exitX=0.5;exitY=1;exitDx=0;exitDy=0;" parent="1" source="I7My5OtGVKia-RhiOEti-9" edge="1">
                    <mxGeometry relative="1" as="geometry">
                        <mxPoint x="630" y="490" as="targetPoint"/>
                        <Array as="points">
                            <mxPoint x="480" y="490"/>
                            <mxPoint x="630" y="490"/>
                        </Array>
                    </mxGeometry>
                </mxCell>
                <mxCell id="I7My5OtGVKia-RhiOEti-12" style="edgeStyle=orthogonalEdgeStyle;rounded=0;orthogonalLoop=1;jettySize=auto;html=1;entryX=0;entryY=0.5;entryDx=0;entryDy=0;" parent="1" source="I7My5OtGVKia-RhiOEti-9" target="I7My5OtGVKia-RhiOEti-14" edge="1">
                    <mxGeometry relative="1" as="geometry">
                        <mxPoint x="620" y="290" as="targetPoint"/>
                    </mxGeometry>
                </mxCell>
                <mxCell id="I7My5OtGVKia-RhiOEti-18" style="edgeStyle=orthogonalEdgeStyle;rounded=0;orthogonalLoop=1;jettySize=auto;html=1;exitX=1;exitY=0.5;exitDx=0;exitDy=0;entryX=0;entryY=0.5;entryDx=0;entryDy=0;" parent="1" source="I7My5OtGVKia-RhiOEti-9" target="I7My5OtGVKia-RhiOEti-15" edge="1">
                    <mxGeometry relative="1" as="geometry"/>
                </mxCell>
                <mxCell id="I7My5OtGVKia-RhiOEti-9" value="Manager&amp;nbsp;&lt;br&gt;liberação de usuários" style="rounded=1;whiteSpace=wrap;html=1;" parent="1" vertex="1">
                    <mxGeometry x="420" y="260" width="120" height="60" as="geometry"/>
                </mxCell>
                <mxCell id="I7My5OtGVKia-RhiOEti-22" style="edgeStyle=orthogonalEdgeStyle;rounded=0;orthogonalLoop=1;jettySize=auto;html=1;exitX=1;exitY=0.5;exitDx=0;exitDy=0;entryX=0;entryY=0.5;entryDx=0;entryDy=0;" parent="1" source="I7My5OtGVKia-RhiOEti-14" target="I7My5OtGVKia-RhiOEti-20" edge="1">
                    <mxGeometry relative="1" as="geometry">
                        <mxPoint x="840" y="189.52631578947376" as="targetPoint"/>
                    </mxGeometry>
                </mxCell>
                <mxCell id="I7My5OtGVKia-RhiOEti-14" value="tela de&lt;br&gt;esquecimento de senha" style="rounded=1;whiteSpace=wrap;html=1;" parent="1" vertex="1">
                    <mxGeometry x="630" y="160" width="120" height="60" as="geometry"/>
                </mxCell>
                <mxCell id="I7My5OtGVKia-RhiOEti-123" style="edgeStyle=orthogonalEdgeStyle;rounded=0;orthogonalLoop=1;jettySize=auto;html=1;entryX=0;entryY=0.5;entryDx=0;entryDy=0;" parent="1" source="I7My5OtGVKia-RhiOEti-15" target="I7My5OtGVKia-RhiOEti-130" edge="1">
                    <mxGeometry relative="1" as="geometry">
                        <mxPoint x="1210" y="340" as="targetPoint"/>
                        <Array as="points">
                            <mxPoint x="1210" y="340"/>
                            <mxPoint x="1210" y="140"/>
                        </Array>
                    </mxGeometry>
                </mxCell>
                <mxCell id="I7My5OtGVKia-RhiOEti-15" value="Tela de cadastro" style="rounded=1;whiteSpace=wrap;html=1;" parent="1" vertex="1">
                    <mxGeometry x="630" y="310" width="120" height="60" as="geometry"/>
                </mxCell>
                <mxCell id="I7My5OtGVKia-RhiOEti-150" style="edgeStyle=orthogonalEdgeStyle;rounded=0;orthogonalLoop=1;jettySize=auto;html=1;entryX=0;entryY=0.5;entryDx=0;entryDy=0;" parent="1" source="I7My5OtGVKia-RhiOEti-19" target="I7My5OtGVKia-RhiOEti-145" edge="1">
                    <mxGeometry relative="1" as="geometry"/>
                </mxCell>
                <mxCell id="I7My5OtGVKia-RhiOEti-19" value="Tela de preenchimento de token" style="rounded=1;whiteSpace=wrap;html=1;" parent="1" vertex="1">
                    <mxGeometry x="905" y="160" width="120" height="60" as="geometry"/>
                </mxCell>
                <mxCell id="I7My5OtGVKia-RhiOEti-23" style="edgeStyle=orthogonalEdgeStyle;rounded=0;orthogonalLoop=1;jettySize=auto;html=1;exitX=1;exitY=0.5;exitDx=0;exitDy=0;" parent="1" source="I7My5OtGVKia-RhiOEti-20" target="I7My5OtGVKia-RhiOEti-19" edge="1">
                    <mxGeometry relative="1" as="geometry">
                        <mxPoint x="970" y="189.52631578947376" as="targetPoint"/>
                    </mxGeometry>
                </mxCell>
                <mxCell id="I7My5OtGVKia-RhiOEti-20" value="" style="rhombus;whiteSpace=wrap;html=1;" parent="1" vertex="1">
                    <mxGeometry x="810" y="170" width="40" height="40" as="geometry"/>
                </mxCell>
                <mxCell id="I7My5OtGVKia-RhiOEti-21" value="Envio de e-mail&amp;nbsp;&lt;div&gt;com token de validação&lt;/div&gt;" style="text;html=1;align=center;verticalAlign=middle;resizable=0;points=[];autosize=1;strokeColor=none;fillColor=none;" parent="1" vertex="1">
                    <mxGeometry x="755" y="120" width="150" height="40" as="geometry"/>
                </mxCell>
                <mxCell id="I7My5OtGVKia-RhiOEti-27" value="&lt;span style=&quot;text-wrap: wrap;&quot;&gt;Tela de postagens&lt;/span&gt;&lt;div&gt;&lt;span style=&quot;text-wrap: wrap;&quot;&gt;&amp;nbsp;de&amp;nbsp;&lt;/span&gt;&lt;span style=&quot;text-wrap: wrap; background-color: initial;&quot;&gt;usuários seguidos.&lt;/span&gt;&lt;/div&gt;" style="text;html=1;align=center;verticalAlign=middle;resizable=0;points=[];autosize=1;strokeColor=none;fillColor=none;rotation=0;" parent="1" vertex="1">
                    <mxGeometry x="600" y="435" width="140" height="40" as="geometry"/>
                </mxCell>
                <mxCell id="I7My5OtGVKia-RhiOEti-38" style="edgeStyle=orthogonalEdgeStyle;rounded=0;orthogonalLoop=1;jettySize=auto;html=1;entryX=0.5;entryY=0;entryDx=0;entryDy=0;" parent="1" source="I7My5OtGVKia-RhiOEti-33" target="I7My5OtGVKia-RhiOEti-44" edge="1">
                    <mxGeometry relative="1" as="geometry">
                        <mxPoint x="1060" y="840" as="targetPoint"/>
                    </mxGeometry>
                </mxCell>
                <mxCell id="I7My5OtGVKia-RhiOEti-39" style="edgeStyle=orthogonalEdgeStyle;rounded=0;orthogonalLoop=1;jettySize=auto;html=1;entryX=0;entryY=0.5;entryDx=0;entryDy=0;" parent="1" source="I7My5OtGVKia-RhiOEti-33" target="I7My5OtGVKia-RhiOEti-43" edge="1">
                    <mxGeometry relative="1" as="geometry">
                        <mxPoint x="1125" y="780.0000000000002" as="targetPoint"/>
                    </mxGeometry>
                </mxCell>
                <mxCell id="I7My5OtGVKia-RhiOEti-33" value="" style="rhombus;whiteSpace=wrap;html=1;" parent="1" vertex="1">
                    <mxGeometry x="1040" y="760" width="40" height="40" as="geometry"/>
                </mxCell>
                <mxCell id="I7My5OtGVKia-RhiOEti-68" style="edgeStyle=orthogonalEdgeStyle;rounded=0;orthogonalLoop=1;jettySize=auto;html=1;entryX=0;entryY=0.5;entryDx=0;entryDy=0;" parent="1" source="I7My5OtGVKia-RhiOEti-34" target="I7My5OtGVKia-RhiOEti-46" edge="1">
                    <mxGeometry relative="1" as="geometry">
                        <mxPoint x="840" y="650" as="targetPoint"/>
                    </mxGeometry>
                </mxCell>
                <mxCell id="I7My5OtGVKia-RhiOEti-34" value="Tela&lt;br&gt;pesquisar um usuário especifico" style="rounded=1;whiteSpace=wrap;html=1;" parent="1" vertex="1">
                    <mxGeometry x="630" y="620" width="120" height="60" as="geometry"/>
                </mxCell>
                <mxCell id="I7My5OtGVKia-RhiOEti-36" value="Segue o usuário?" style="text;html=1;align=center;verticalAlign=middle;whiteSpace=wrap;rounded=0;" parent="1" vertex="1">
                    <mxGeometry x="965" y="765" width="60" height="30" as="geometry"/>
                </mxCell>
                <mxCell id="I7My5OtGVKia-RhiOEti-41" value="s" style="text;html=1;align=center;verticalAlign=middle;whiteSpace=wrap;rounded=0;" parent="1" vertex="1">
                    <mxGeometry x="1070" y="735" width="60" height="30" as="geometry"/>
                </mxCell>
                <mxCell id="I7My5OtGVKia-RhiOEti-42" value="n" style="text;html=1;align=center;verticalAlign=middle;whiteSpace=wrap;rounded=0;" parent="1" vertex="1">
                    <mxGeometry x="1040" y="800" width="60" height="30" as="geometry"/>
                </mxCell>
                <mxCell id="I7My5OtGVKia-RhiOEti-43" value="Tela de&amp;nbsp;&lt;div&gt;perfil do usuário&lt;/div&gt;" style="rounded=1;whiteSpace=wrap;html=1;" parent="1" vertex="1">
                    <mxGeometry x="1330" y="750" width="120" height="60" as="geometry"/>
                </mxCell>
                <mxCell id="I7My5OtGVKia-RhiOEti-57" style="edgeStyle=orthogonalEdgeStyle;rounded=0;orthogonalLoop=1;jettySize=auto;html=1;entryX=0.5;entryY=0;entryDx=0;entryDy=0;" parent="1" target="I7My5OtGVKia-RhiOEti-56" edge="1">
                    <mxGeometry relative="1" as="geometry">
                        <mxPoint x="1060.0588235294117" y="900" as="sourcePoint"/>
                        <mxPoint x="1060" y="930" as="targetPoint"/>
                    </mxGeometry>
                </mxCell>
                <mxCell id="I7My5OtGVKia-RhiOEti-44" value="Tela de&amp;nbsp;&lt;div&gt;perfil do usuário minimalista&lt;/div&gt;" style="rounded=1;whiteSpace=wrap;html=1;" parent="1" vertex="1">
                    <mxGeometry x="1000" y="850" width="120" height="60" as="geometry"/>
                </mxCell>
                <mxCell id="I7My5OtGVKia-RhiOEti-49" style="edgeStyle=orthogonalEdgeStyle;rounded=0;orthogonalLoop=1;jettySize=auto;html=1;" parent="1" source="I7My5OtGVKia-RhiOEti-46" target="I7My5OtGVKia-RhiOEti-33" edge="1">
                    <mxGeometry relative="1" as="geometry">
                        <mxPoint x="1060" y="710" as="targetPoint"/>
                    </mxGeometry>
                </mxCell>
                <mxCell id="I7My5OtGVKia-RhiOEti-53" style="edgeStyle=orthogonalEdgeStyle;rounded=0;orthogonalLoop=1;jettySize=auto;html=1;exitX=1;exitY=1;exitDx=0;exitDy=0;" parent="1" source="I7My5OtGVKia-RhiOEti-46" edge="1">
                    <mxGeometry relative="1" as="geometry">
                        <mxPoint x="1387.25" y="752" as="targetPoint"/>
                        <mxPoint x="1282.25" y="652" as="sourcePoint"/>
                        <Array as="points">
                            <mxPoint x="1070" y="650"/>
                            <mxPoint x="1387" y="650"/>
                        </Array>
                    </mxGeometry>
                </mxCell>
                <mxCell id="I7My5OtGVKia-RhiOEti-46" value="" style="rhombus;whiteSpace=wrap;html=1;" parent="1" vertex="1">
                    <mxGeometry x="1040" y="630" width="40" height="40" as="geometry"/>
                </mxCell>
                <mxCell id="I7My5OtGVKia-RhiOEti-47" value="conta do usuário é privada?" style="text;html=1;align=center;verticalAlign=middle;whiteSpace=wrap;rounded=0;" parent="1" vertex="1">
                    <mxGeometry x="1030" y="590" width="60" height="30" as="geometry"/>
                </mxCell>
                <mxCell id="I7My5OtGVKia-RhiOEti-50" value="s" style="text;html=1;align=center;verticalAlign=middle;whiteSpace=wrap;rounded=0;" parent="1" vertex="1">
                    <mxGeometry x="1020" y="680" width="60" height="30" as="geometry"/>
                </mxCell>
                <mxCell id="I7My5OtGVKia-RhiOEti-52" value="n" style="text;html=1;align=center;verticalAlign=middle;whiteSpace=wrap;rounded=0;" parent="1" vertex="1">
                    <mxGeometry x="1080" y="630" width="60" height="30" as="geometry"/>
                </mxCell>
                <mxCell id="I7My5OtGVKia-RhiOEti-56" value="pedir pra seguir" style="ellipse;whiteSpace=wrap;html=1;" parent="1" vertex="1">
                    <mxGeometry x="1030" y="940" width="60" height="50" as="geometry"/>
                </mxCell>
                <mxCell id="I7My5OtGVKia-RhiOEti-62" style="edgeStyle=orthogonalEdgeStyle;rounded=0;orthogonalLoop=1;jettySize=auto;html=1;entryX=1.014;entryY=0.372;entryDx=0;entryDy=0;entryPerimeter=0;" parent="1" source="I7My5OtGVKia-RhiOEti-59" edge="1">
                    <mxGeometry relative="1" as="geometry">
                        <mxPoint x="1121.6799999999998" y="862.3199999999999" as="targetPoint"/>
                        <Array as="points">
                            <mxPoint x="1230" y="862"/>
                        </Array>
                    </mxGeometry>
                </mxCell>
                <mxCell id="I7My5OtGVKia-RhiOEti-63" style="edgeStyle=orthogonalEdgeStyle;rounded=0;orthogonalLoop=1;jettySize=auto;html=1;entryX=0.5;entryY=1;entryDx=0;entryDy=0;" parent="1" source="I7My5OtGVKia-RhiOEti-59" target="I7My5OtGVKia-RhiOEti-43" edge="1">
                    <mxGeometry relative="1" as="geometry">
                        <mxPoint x="1400" y="955" as="targetPoint"/>
                    </mxGeometry>
                </mxCell>
                <mxCell id="I7My5OtGVKia-RhiOEti-59" value="" style="rhombus;whiteSpace=wrap;html=1;" parent="1" vertex="1">
                    <mxGeometry x="1210" y="935" width="40" height="40" as="geometry"/>
                </mxCell>
                <mxCell id="I7My5OtGVKia-RhiOEti-60" value="Usuário aceitou?" style="text;html=1;align=center;verticalAlign=middle;resizable=0;points=[];autosize=1;strokeColor=none;fillColor=none;" parent="1" vertex="1">
                    <mxGeometry x="1175" y="980" width="110" height="30" as="geometry"/>
                </mxCell>
                <mxCell id="I7My5OtGVKia-RhiOEti-61" style="edgeStyle=orthogonalEdgeStyle;rounded=0;orthogonalLoop=1;jettySize=auto;html=1;entryX=0;entryY=0.5;entryDx=0;entryDy=0;" parent="1" target="I7My5OtGVKia-RhiOEti-59" edge="1">
                    <mxGeometry relative="1" as="geometry">
                        <mxPoint x="1090" y="955" as="sourcePoint"/>
                        <mxPoint x="1200" y="960" as="targetPoint"/>
                    </mxGeometry>
                </mxCell>
                <mxCell id="I7My5OtGVKia-RhiOEti-64" value="n" style="text;html=1;align=center;verticalAlign=middle;whiteSpace=wrap;rounded=0;" parent="1" vertex="1">
                    <mxGeometry x="1180" y="830" width="60" height="30" as="geometry"/>
                </mxCell>
                <mxCell id="I7My5OtGVKia-RhiOEti-66" value="s" style="text;html=1;align=center;verticalAlign=middle;whiteSpace=wrap;rounded=0;" parent="1" vertex="1">
                    <mxGeometry x="1275" y="920" width="60" height="30" as="geometry"/>
                </mxCell>
                <mxCell id="I7My5OtGVKia-RhiOEti-71" value="- postagens&lt;br&gt;-username&lt;div&gt;-bio&lt;br&gt;&lt;div&gt;- seguidos&lt;/div&gt;&lt;div&gt;-seguidores&lt;/div&gt;&lt;div&gt;-foto de perfil&lt;/div&gt;&lt;div&gt;-tag musical&lt;/div&gt;&lt;div&gt;-redes sociais&lt;br&gt;-deixar de seguir&lt;/div&gt;&lt;/div&gt;" style="text;html=1;align=center;verticalAlign=middle;resizable=0;points=[];autosize=1;strokeColor=none;fillColor=none;" parent="1" vertex="1">
                    <mxGeometry x="1450" y="715" width="110" height="140" as="geometry"/>
                </mxCell>
                <mxCell id="I7My5OtGVKia-RhiOEti-72" value="-foto de perfil&lt;div&gt;-username&lt;/div&gt;&lt;div&gt;-bio&lt;/div&gt;&lt;div&gt;-seguidores&lt;/div&gt;&lt;div&gt;-seguidos&lt;/div&gt;&lt;div&gt;-tag musical&lt;br&gt;pedir pra seugir&lt;/div&gt;" style="text;html=1;align=center;verticalAlign=middle;resizable=0;points=[];autosize=1;strokeColor=none;fillColor=none;" parent="1" vertex="1">
                    <mxGeometry x="900" y="830" width="110" height="110" as="geometry"/>
                </mxCell>
                <mxCell id="I7My5OtGVKia-RhiOEti-75" value="postagens recomendadas" style="text;html=1;align=center;verticalAlign=middle;resizable=0;points=[];autosize=1;strokeColor=none;fillColor=none;" parent="1" vertex="1">
                    <mxGeometry x="985" y="460" width="160" height="30" as="geometry"/>
                </mxCell>
                <mxCell id="I7My5OtGVKia-RhiOEti-84" style="edgeStyle=orthogonalEdgeStyle;rounded=0;orthogonalLoop=1;jettySize=auto;html=1;" parent="1" source="I7My5OtGVKia-RhiOEti-79" edge="1">
                    <mxGeometry relative="1" as="geometry">
                        <mxPoint x="1015" y="520" as="targetPoint"/>
                    </mxGeometry>
                </mxCell>
                <mxCell id="I7My5OtGVKia-RhiOEti-79" value="Manager&amp;nbsp;&lt;br&gt;liberação de postagens" style="rounded=1;whiteSpace=wrap;html=1;" parent="1" vertex="1">
                    <mxGeometry x="835" y="490" width="120" height="60" as="geometry"/>
                </mxCell>
                <mxCell id="I7My5OtGVKia-RhiOEti-87" style="edgeStyle=orthogonalEdgeStyle;rounded=0;orthogonalLoop=1;jettySize=auto;html=1;" parent="1" source="I7My5OtGVKia-RhiOEti-83" target="I7My5OtGVKia-RhiOEti-86" edge="1">
                    <mxGeometry relative="1" as="geometry"/>
                </mxCell>
                <mxCell id="I7My5OtGVKia-RhiOEti-83" value="Tela de explorar" style="rounded=1;whiteSpace=wrap;html=1;" parent="1" vertex="1">
                    <mxGeometry x="1005" y="490" width="120" height="60" as="geometry"/>
                </mxCell>
                <mxCell id="I7My5OtGVKia-RhiOEti-86" value="Tela&amp;nbsp;&lt;br&gt;postagem fitrada" style="rounded=1;whiteSpace=wrap;html=1;" parent="1" vertex="1">
                    <mxGeometry x="1165" y="490" width="120" height="60" as="geometry"/>
                </mxCell>
                <mxCell id="I7My5OtGVKia-RhiOEti-88" value="postagens especifica" style="text;html=1;align=center;verticalAlign=middle;resizable=0;points=[];autosize=1;strokeColor=none;fillColor=none;" parent="1" vertex="1">
                    <mxGeometry x="1155" y="460" width="140" height="30" as="geometry"/>
                </mxCell>
                <mxCell id="I7My5OtGVKia-RhiOEti-89" value="filtra postagens&amp;nbsp;&lt;div&gt;recomendadas de usuários&lt;/div&gt;&lt;div&gt;&amp;nbsp;com contas não privadas&lt;/div&gt;&lt;div&gt;&amp;nbsp;e não seguidas&lt;/div&gt;" style="text;html=1;align=center;verticalAlign=middle;resizable=0;points=[];autosize=1;strokeColor=none;fillColor=none;" parent="1" vertex="1">
                    <mxGeometry x="810" y="415" width="170" height="70" as="geometry"/>
                </mxCell>
                <mxCell id="I7My5OtGVKia-RhiOEti-90" value="-seguir&lt;div&gt;-curtir&lt;/div&gt;&lt;div&gt;-comentar&lt;/div&gt;&lt;div&gt;-denunciar&lt;/div&gt;&lt;div&gt;&lt;br&gt;&lt;/div&gt;" style="text;html=1;align=center;verticalAlign=middle;resizable=0;points=[];autosize=1;strokeColor=none;fillColor=none;" parent="1" vertex="1">
                    <mxGeometry x="1285" y="475" width="80" height="90" as="geometry"/>
                </mxCell>
                <mxCell id="I7My5OtGVKia-RhiOEti-129" style="edgeStyle=orthogonalEdgeStyle;rounded=0;orthogonalLoop=1;jettySize=auto;html=1;entryX=0.5;entryY=1;entryDx=0;entryDy=0;" parent="1" source="I7My5OtGVKia-RhiOEti-127" target="I7My5OtGVKia-RhiOEti-128" edge="1">
                    <mxGeometry relative="1" as="geometry"/>
                </mxCell>
                <mxCell id="I7My5OtGVKia-RhiOEti-228" style="edgeStyle=orthogonalEdgeStyle;rounded=0;orthogonalLoop=1;jettySize=auto;html=1;exitX=1;exitY=0.75;exitDx=0;exitDy=0;" parent="1" source="I7My5OtGVKia-RhiOEti-127" edge="1">
                    <mxGeometry relative="1" as="geometry">
                        <mxPoint x="1520" y="344.6190476190475" as="targetPoint"/>
                    </mxGeometry>
                </mxCell>
                <mxCell id="I7My5OtGVKia-RhiOEti-127" value="tela de perfil do usuario" style="rounded=1;whiteSpace=wrap;html=1;" parent="1" vertex="1">
                    <mxGeometry x="1265" y="300" width="120" height="60" as="geometry"/>
                </mxCell>
                <mxCell id="I7My5OtGVKia-RhiOEti-157" style="edgeStyle=orthogonalEdgeStyle;rounded=0;orthogonalLoop=1;jettySize=auto;html=1;entryX=0.5;entryY=1;entryDx=0;entryDy=0;" parent="1" source="I7My5OtGVKia-RhiOEti-128" target="I7My5OtGVKia-RhiOEti-130" edge="1">
                    <mxGeometry relative="1" as="geometry"/>
                </mxCell>
                <mxCell id="I7My5OtGVKia-RhiOEti-128" value="Tela de&amp;nbsp;&lt;br&gt;criar uma nova postagem" style="rounded=1;whiteSpace=wrap;html=1;" parent="1" vertex="1">
                    <mxGeometry x="1265" y="190" width="120" height="60" as="geometry"/>
                </mxCell>
                <mxCell id="I7My5OtGVKia-RhiOEti-130" value="Manager&amp;nbsp;&lt;br&gt;liberação de upload de arquivos" style="rounded=1;whiteSpace=wrap;html=1;" parent="1" vertex="1">
                    <mxGeometry x="1265" y="110" width="120" height="60" as="geometry"/>
                </mxCell>
                <mxCell id="I7My5OtGVKia-RhiOEti-131" value="foto/vídeo inapropriado?" style="text;html=1;align=center;verticalAlign=middle;resizable=0;points=[];autosize=1;strokeColor=none;fillColor=none;" parent="1" vertex="1">
                    <mxGeometry x="1430" y="110" width="150" height="30" as="geometry"/>
                </mxCell>
                <mxCell id="I7My5OtGVKia-RhiOEti-138" value="cadastro&amp;nbsp;&lt;div&gt;de&amp;nbsp;&lt;/div&gt;&lt;div&gt;usuário?&lt;/div&gt;" style="text;html=1;align=center;verticalAlign=middle;resizable=0;points=[];autosize=1;strokeColor=none;fillColor=none;" parent="1" vertex="1">
                    <mxGeometry x="1720" y="140" width="70" height="60" as="geometry"/>
                </mxCell>
                <mxCell id="I7My5OtGVKia-RhiOEti-148" style="edgeStyle=orthogonalEdgeStyle;rounded=0;orthogonalLoop=1;jettySize=auto;html=1;exitX=0.5;exitY=0;exitDx=0;exitDy=0;" parent="1" source="I7My5OtGVKia-RhiOEti-145" target="I7My5OtGVKia-RhiOEti-9" edge="1">
                    <mxGeometry relative="1" as="geometry">
                        <mxPoint x="1080.2222222222222" y="70" as="targetPoint"/>
                        <Array as="points">
                            <mxPoint x="1090" y="70"/>
                            <mxPoint x="480" y="70"/>
                        </Array>
                    </mxGeometry>
                </mxCell>
                <mxCell id="I7My5OtGVKia-RhiOEti-151" style="edgeStyle=orthogonalEdgeStyle;rounded=0;orthogonalLoop=1;jettySize=auto;html=1;" parent="1" source="I7My5OtGVKia-RhiOEti-145" target="I7My5OtGVKia-RhiOEti-14" edge="1">
                    <mxGeometry relative="1" as="geometry">
                        <mxPoint x="1090" y="280" as="targetPoint"/>
                        <Array as="points">
                            <mxPoint x="1090" y="240"/>
                            <mxPoint x="690" y="240"/>
                        </Array>
                    </mxGeometry>
                </mxCell>
                <mxCell id="I7My5OtGVKia-RhiOEti-145" value="" style="rhombus;whiteSpace=wrap;html=1;" parent="1" vertex="1">
                    <mxGeometry x="1070" y="170" width="40" height="40" as="geometry"/>
                </mxCell>
                <mxCell id="I7My5OtGVKia-RhiOEti-147" value="token valido?" style="text;html=1;align=center;verticalAlign=middle;resizable=0;points=[];autosize=1;strokeColor=none;fillColor=none;" parent="1" vertex="1">
                    <mxGeometry x="1110" y="175" width="90" height="30" as="geometry"/>
                </mxCell>
                <mxCell id="I7My5OtGVKia-RhiOEti-149" value="s" style="text;html=1;align=center;verticalAlign=middle;whiteSpace=wrap;rounded=0;" parent="1" vertex="1">
                    <mxGeometry x="1110" y="130" width="60" height="30" as="geometry"/>
                </mxCell>
                <mxCell id="I7My5OtGVKia-RhiOEti-152" value="n" style="text;html=1;align=center;verticalAlign=middle;whiteSpace=wrap;rounded=0;" parent="1" vertex="1">
                    <mxGeometry x="1050" y="240" width="60" height="30" as="geometry"/>
                </mxCell>
                <mxCell id="I7My5OtGVKia-RhiOEti-159" style="edgeStyle=orthogonalEdgeStyle;rounded=0;orthogonalLoop=1;jettySize=auto;html=1;exitX=1;exitY=1;exitDx=0;exitDy=0;entryX=0;entryY=0.5;entryDx=0;entryDy=0;" parent="1" source="I7My5OtGVKia-RhiOEti-130" edge="1">
                    <mxGeometry relative="1" as="geometry">
                        <mxPoint x="1485" y="170.0000000000001" as="targetPoint"/>
                        <Array as="points">
                            <mxPoint x="1460" y="170"/>
                            <mxPoint x="1460" y="170"/>
                        </Array>
                    </mxGeometry>
                </mxCell>
                <mxCell id="I7My5OtGVKia-RhiOEti-196" style="edgeStyle=orthogonalEdgeStyle;rounded=0;orthogonalLoop=1;jettySize=auto;html=1;" parent="1" source="I7My5OtGVKia-RhiOEti-193" edge="1">
                    <mxGeometry relative="1" as="geometry">
                        <mxPoint x="1090" y="70" as="targetPoint"/>
                    </mxGeometry>
                </mxCell>
                <mxCell id="I7My5OtGVKia-RhiOEti-193" value="criação do usuário&lt;div&gt;com ou sem foto&lt;/div&gt;" style="rounded=1;whiteSpace=wrap;html=1;" parent="1" vertex="1">
                    <mxGeometry x="1900" y="40" width="120" height="60" as="geometry"/>
                </mxCell>
                <mxCell id="I7My5OtGVKia-RhiOEti-203" style="edgeStyle=orthogonalEdgeStyle;rounded=0;orthogonalLoop=1;jettySize=auto;html=1;exitX=1;exitY=0.5;exitDx=0;exitDy=0;entryX=-0.03;entryY=0.48;entryDx=0;entryDy=0;entryPerimeter=0;" parent="1" source="I7My5OtGVKia-RhiOEti-194" target="I7My5OtGVKia-RhiOEti-204" edge="1">
                    <mxGeometry relative="1" as="geometry">
                        <mxPoint x="1620" y="230" as="targetPoint"/>
                    </mxGeometry>
                </mxCell>
                <mxCell id="I7My5OtGVKia-RhiOEti-194" value="" style="rhombus;whiteSpace=wrap;html=1;" parent="1" vertex="1">
                    <mxGeometry x="1485" y="150" width="40" height="40" as="geometry"/>
                </mxCell>
                <mxCell id="I7My5OtGVKia-RhiOEti-200" value="" style="edgeStyle=orthogonalEdgeStyle;rounded=0;orthogonalLoop=1;jettySize=auto;html=1;" parent="1" source="I7My5OtGVKia-RhiOEti-194" target="I7My5OtGVKia-RhiOEti-198" edge="1">
                    <mxGeometry relative="1" as="geometry">
                        <mxPoint x="1770" y="170" as="targetPoint"/>
                        <mxPoint x="1525" y="170" as="sourcePoint"/>
                    </mxGeometry>
                </mxCell>
                <mxCell id="I7My5OtGVKia-RhiOEti-219" style="edgeStyle=orthogonalEdgeStyle;rounded=0;orthogonalLoop=1;jettySize=auto;html=1;entryX=0.5;entryY=0;entryDx=0;entryDy=0;" parent="1" source="I7My5OtGVKia-RhiOEti-198" target="I7My5OtGVKia-RhiOEti-206" edge="1">
                    <mxGeometry relative="1" as="geometry"/>
                </mxCell>
                <mxCell id="I7My5OtGVKia-RhiOEti-198" value="cancelamento de upload" style="ellipse;whiteSpace=wrap;html=1;aspect=fixed;" parent="1" vertex="1">
                    <mxGeometry x="1630" y="85" width="80" height="80" as="geometry"/>
                </mxCell>
                <mxCell id="I7My5OtGVKia-RhiOEti-201" value="s" style="text;html=1;align=center;verticalAlign=middle;whiteSpace=wrap;rounded=0;" parent="1" vertex="1">
                    <mxGeometry x="1560" y="125" width="60" height="30" as="geometry"/>
                </mxCell>
                <mxCell id="I7My5OtGVKia-RhiOEti-208" style="edgeStyle=orthogonalEdgeStyle;rounded=0;orthogonalLoop=1;jettySize=auto;html=1;" parent="1" source="I7My5OtGVKia-RhiOEti-204" target="I7My5OtGVKia-RhiOEti-206" edge="1">
                    <mxGeometry relative="1" as="geometry">
                        <Array as="points">
                            <mxPoint x="1800" y="230"/>
                        </Array>
                    </mxGeometry>
                </mxCell>
                <mxCell id="I7My5OtGVKia-RhiOEti-204" value="upload de arquivo" style="ellipse;whiteSpace=wrap;html=1;aspect=fixed;" parent="1" vertex="1">
                    <mxGeometry x="1630" y="190" width="80" height="80" as="geometry"/>
                </mxCell>
                <mxCell id="I7My5OtGVKia-RhiOEti-205" value="n" style="text;html=1;align=center;verticalAlign=middle;whiteSpace=wrap;rounded=0;" parent="1" vertex="1">
                    <mxGeometry x="1560" y="200" width="60" height="30" as="geometry"/>
                </mxCell>
                <mxCell id="I7My5OtGVKia-RhiOEti-220" style="edgeStyle=orthogonalEdgeStyle;rounded=0;orthogonalLoop=1;jettySize=auto;html=1;" parent="1" source="I7My5OtGVKia-RhiOEti-206" edge="1">
                    <mxGeometry relative="1" as="geometry">
                        <mxPoint x="1960" y="250" as="targetPoint"/>
                    </mxGeometry>
                </mxCell>
                <mxCell id="I7My5OtGVKia-RhiOEti-206" value="" style="rhombus;whiteSpace=wrap;html=1;" parent="1" vertex="1">
                    <mxGeometry x="1780" y="150" width="40" height="40" as="geometry"/>
                </mxCell>
                <mxCell id="I7My5OtGVKia-RhiOEti-209" style="edgeStyle=orthogonalEdgeStyle;rounded=0;orthogonalLoop=1;jettySize=auto;html=1;" parent="1" source="I7My5OtGVKia-RhiOEti-206" edge="1">
                    <mxGeometry relative="1" as="geometry">
                        <mxPoint x="1960" y="100" as="targetPoint"/>
                        <Array as="points">
                            <mxPoint x="1960" y="170"/>
                            <mxPoint x="1960" y="100"/>
                        </Array>
                    </mxGeometry>
                </mxCell>
                <mxCell id="I7My5OtGVKia-RhiOEti-210" value="s" style="text;html=1;align=center;verticalAlign=middle;whiteSpace=wrap;rounded=0;" parent="1" vertex="1">
                    <mxGeometry x="1910" y="120" width="60" height="30" as="geometry"/>
                </mxCell>
                <mxCell id="I7My5OtGVKia-RhiOEti-214" value="cancelamento da postagem" style="rounded=1;whiteSpace=wrap;html=1;" parent="1" vertex="1">
                    <mxGeometry x="2020" y="240" width="120" height="60" as="geometry"/>
                </mxCell>
                <mxCell id="I7My5OtGVKia-RhiOEti-215" value="n" style="text;html=1;align=center;verticalAlign=middle;whiteSpace=wrap;rounded=0;" parent="1" vertex="1">
                    <mxGeometry x="1960" y="240" width="60" height="30" as="geometry"/>
                </mxCell>
                <mxCell id="I7My5OtGVKia-RhiOEti-224" style="edgeStyle=orthogonalEdgeStyle;rounded=0;orthogonalLoop=1;jettySize=auto;html=1;" parent="1" source="I7My5OtGVKia-RhiOEti-222" target="I7My5OtGVKia-RhiOEti-214" edge="1">
                    <mxGeometry relative="1" as="geometry"/>
                </mxCell>
                <mxCell id="I7My5OtGVKia-RhiOEti-225" style="edgeStyle=orthogonalEdgeStyle;rounded=0;orthogonalLoop=1;jettySize=auto;html=1;" parent="1" source="I7My5OtGVKia-RhiOEti-222" edge="1">
                    <mxGeometry relative="1" as="geometry">
                        <mxPoint x="1385" y="310" as="targetPoint"/>
                        <Array as="points">
                            <mxPoint x="1960" y="310"/>
                            <mxPoint x="1385" y="310"/>
                        </Array>
                    </mxGeometry>
                </mxCell>
                <mxCell id="I7My5OtGVKia-RhiOEti-222" value="" style="rhombus;whiteSpace=wrap;html=1;" parent="1" vertex="1">
                    <mxGeometry x="1940" y="250" width="40" height="40" as="geometry"/>
                </mxCell>
                <mxCell id="I7My5OtGVKia-RhiOEti-223" value="foto/vídeo&lt;div&gt;valido?&lt;/div&gt;" style="text;html=1;align=center;verticalAlign=middle;resizable=0;points=[];autosize=1;strokeColor=none;fillColor=none;" parent="1" vertex="1">
                    <mxGeometry x="1860" y="250" width="80" height="40" as="geometry"/>
                </mxCell>
                <mxCell id="I7My5OtGVKia-RhiOEti-226" value="s" style="text;html=1;align=center;verticalAlign=middle;whiteSpace=wrap;rounded=0;" parent="1" vertex="1">
                    <mxGeometry x="1910" y="310" width="60" height="30" as="geometry"/>
                </mxCell>
                <mxCell id="I7My5OtGVKia-RhiOEti-229" value="tela de postagem filtrada de postagem do usuario" style="rounded=1;whiteSpace=wrap;html=1;" parent="1" vertex="1">
                    <mxGeometry x="1525" y="320" width="120" height="60" as="geometry"/>
                </mxCell>
                <mxCell id="I7My5OtGVKia-RhiOEti-230" value="- curtidas&lt;div&gt;&lt;span style=&quot;background-color: initial;&quot;&gt;-comentários&lt;/span&gt;&lt;div&gt;-apagar postagem&lt;/div&gt;&lt;/div&gt;&lt;div&gt;-curtir comentario&lt;/div&gt;" style="text;html=1;align=center;verticalAlign=middle;resizable=0;points=[];autosize=1;strokeColor=none;fillColor=none;" parent="1" vertex="1">
                    <mxGeometry x="1640" y="318" width="120" height="70" as="geometry"/>
                </mxCell>
                <mxCell id="I7My5OtGVKia-RhiOEti-231" value="volta pra tela do usuario atualizado com a nova postagem" style="text;html=1;align=center;verticalAlign=middle;resizable=0;points=[];autosize=1;strokeColor=none;fillColor=none;" parent="1" vertex="1">
                    <mxGeometry x="1505" y="280" width="330" height="30" as="geometry"/>
                </mxCell>
                <mxCell id="I7My5OtGVKia-RhiOEti-234" value="&lt;div&gt;&lt;b&gt;MusicNook - Diagrama de Regras de Negócio e Funcionalidades&lt;/b&gt;&lt;/div&gt;&lt;div&gt;&lt;br&gt;&lt;/div&gt;&lt;div&gt;1. Autenticação e Perfis&lt;/div&gt;&lt;div&gt;&amp;nbsp; &amp;nbsp;- Cadastro e Login&lt;/div&gt;&lt;div&gt;&amp;nbsp; &amp;nbsp; &amp;nbsp; - Métodos: E-mail, Senha, Recuperação de Senha&lt;/div&gt;&lt;div&gt;&amp;nbsp; &amp;nbsp; &amp;nbsp; - Regras: Senhas seguras, autenticação de dois fatores (opcional)&lt;/div&gt;&lt;div&gt;&amp;nbsp; &amp;nbsp;- Perfil de Usuário&lt;/div&gt;&lt;div&gt;&amp;nbsp; &amp;nbsp; &amp;nbsp; - Elementos: Foto, Nome, Biografia, Links para redes sociais&lt;/div&gt;&lt;div&gt;&amp;nbsp; &amp;nbsp; &amp;nbsp; - Regras: Perfis públicos ou privados, aprovação de seguidores para perfis privados&lt;/div&gt;&lt;div&gt;&amp;nbsp; &amp;nbsp; &amp;nbsp; - Ações: Seguir, Deixar de Seguir, Bloquear, Reportar&lt;/div&gt;&lt;div&gt;&lt;br&gt;&lt;/div&gt;&lt;div&gt;2. Publicação de Conteúdo&lt;/div&gt;&lt;div&gt;&amp;nbsp; &amp;nbsp;- Postagem&lt;/div&gt;&lt;div&gt;&amp;nbsp; &amp;nbsp; &amp;nbsp; - Tipos: Músicas, Álbuns, Playlists, Artistas&lt;/div&gt;&lt;div&gt;&amp;nbsp; &amp;nbsp; &amp;nbsp; - Recursos: Links para serviços de streaming (Spotify, YouTube, etc.)&lt;/div&gt;&lt;div&gt;&amp;nbsp; &amp;nbsp; &amp;nbsp; - Regras: Conteúdo deve ser relacionado à música; Postagens fora de contexto podem ser removidas&lt;/div&gt;&lt;div&gt;&amp;nbsp; &amp;nbsp;- Interação&lt;/div&gt;&lt;div&gt;&amp;nbsp; &amp;nbsp; &amp;nbsp; - Comentários, Curtidas, Reações&lt;/div&gt;&lt;div&gt;&amp;nbsp; &amp;nbsp; &amp;nbsp; - Hashtags (#)&lt;/div&gt;&lt;div&gt;&lt;br&gt;&lt;/div&gt;&lt;div&gt;3. Exploração e Descoberta&lt;/div&gt;&lt;div&gt;&amp;nbsp; &amp;nbsp;- Feed Personalizado&lt;/div&gt;&lt;div&gt;&amp;nbsp; &amp;nbsp; &amp;nbsp; - Baseado em: Seguindo, Interesses Musicais, Recomendações&lt;/div&gt;&lt;div&gt;&amp;nbsp; &amp;nbsp;- Explorar&lt;/div&gt;&lt;div&gt;&amp;nbsp; &amp;nbsp; &amp;nbsp; - Critérios: Hashtags, Tendências, Artistas Populares&lt;/div&gt;&lt;div&gt;&amp;nbsp; &amp;nbsp;- Busca&lt;/div&gt;&lt;div&gt;&amp;nbsp; &amp;nbsp; &amp;nbsp; - Funções: Buscar Postagens, Usuários, Hashtags, Músicas&lt;/div&gt;&lt;div&gt;&lt;br&gt;&lt;/div&gt;&lt;div&gt;4. Playlists e Recomendações&lt;/div&gt;&lt;div&gt;&amp;nbsp; &amp;nbsp;- Criação de Playlists&lt;/div&gt;&lt;div&gt;&amp;nbsp; &amp;nbsp; &amp;nbsp; - Regras: Pode ser privada ou colaborativa&lt;/div&gt;&lt;div&gt;&amp;nbsp; &amp;nbsp; &amp;nbsp; - Ações: Compartilhar, Adicionar Músicas&lt;/div&gt;&lt;div&gt;&amp;nbsp; &amp;nbsp;- Recomendações Personalizadas&lt;/div&gt;&lt;div&gt;&amp;nbsp; &amp;nbsp; &amp;nbsp; - Baseado em: Interações, Preferências do Usuário&lt;/div&gt;&lt;div&gt;&amp;nbsp; &amp;nbsp; &amp;nbsp; - Ações: Ouvir, Adicionar à Playlist&lt;/div&gt;&lt;div&gt;&lt;br&gt;&lt;/div&gt;&lt;div&gt;5. Integração com Streaming&lt;/div&gt;&lt;div&gt;&amp;nbsp; &amp;nbsp;- Spotify API&lt;/div&gt;&lt;div&gt;&amp;nbsp; &amp;nbsp; &amp;nbsp; - Funções: Compartilhar Músicas, Álbuns, Playlists&lt;/div&gt;&lt;div&gt;&amp;nbsp; &amp;nbsp;- YouTube API&lt;/div&gt;&lt;div&gt;&amp;nbsp; &amp;nbsp; &amp;nbsp; - Funções: Compartilhar Vídeos Musicais&lt;/div&gt;&lt;div&gt;&lt;br&gt;&lt;/div&gt;&lt;div&gt;6. Interações e Comunidade&lt;/div&gt;&lt;div&gt;&amp;nbsp; &amp;nbsp;- Mensagens Diretas&lt;/div&gt;&lt;div&gt;&amp;nbsp; &amp;nbsp; &amp;nbsp; - Ações: Enviar, Receber, Bloquear Usuário&lt;/div&gt;&lt;div&gt;&amp;nbsp; &amp;nbsp;- Grupos e Comunidades&lt;/div&gt;&lt;div&gt;&amp;nbsp; &amp;nbsp; &amp;nbsp; - Tipos: Baseados em Gêneros Musicais, Artistas, Eventos&lt;/div&gt;&lt;div&gt;&amp;nbsp; &amp;nbsp;- Eventos Musicais&lt;/div&gt;&lt;div&gt;&amp;nbsp; &amp;nbsp; &amp;nbsp; - Ações: Criar, Compartilhar, Participar&lt;/div&gt;&lt;div&gt;&lt;br&gt;&lt;/div&gt;&lt;div&gt;7. Administração e Moderação&lt;/div&gt;&lt;div&gt;&amp;nbsp; &amp;nbsp;- Painel de Administração&lt;/div&gt;&lt;div&gt;&amp;nbsp; &amp;nbsp; &amp;nbsp; - Funções: Moderação de Postagens, Comentários, Perfis&lt;/div&gt;&lt;div&gt;&amp;nbsp; &amp;nbsp; &amp;nbsp; - Regras: Detecção de Spam, Abuso, Comportamento Inapropriado&lt;/div&gt;&lt;div&gt;&amp;nbsp; &amp;nbsp;- Relatórios de Abuso&lt;/div&gt;&lt;div&gt;&amp;nbsp; &amp;nbsp; &amp;nbsp; - Ações: Reportar, Revisar, Penalizar&lt;/div&gt;&lt;div&gt;&lt;br&gt;&lt;/div&gt;&lt;div&gt;8. Notificações&lt;/div&gt;&lt;div&gt;&amp;nbsp; &amp;nbsp;- Tempo Real&lt;/div&gt;&lt;div&gt;&amp;nbsp; &amp;nbsp; &amp;nbsp; - Eventos: Curtidas, Comentários, Seguintes, Mensagens&lt;/div&gt;&lt;div&gt;&amp;nbsp; &amp;nbsp;- Configurações de Notificações&lt;/div&gt;&lt;div&gt;&amp;nbsp; &amp;nbsp; &amp;nbsp; - Opções: Escolher Tipos de Notificações Recebidas&lt;/div&gt;&lt;div&gt;&lt;br&gt;&lt;/div&gt;&lt;div&gt;9. Monetização (Opcional)&lt;/div&gt;&lt;div&gt;&amp;nbsp; &amp;nbsp;- Anúncios&lt;/div&gt;&lt;div&gt;&amp;nbsp; &amp;nbsp;- Assinaturas Premium&lt;/div&gt;&lt;div&gt;&amp;nbsp; &amp;nbsp;- Parcerias com Streaming&lt;/div&gt;&lt;div&gt;&lt;br&gt;&lt;/div&gt;" style="text;html=1;align=left;verticalAlign=middle;resizable=0;points=[];autosize=1;strokeColor=none;fillColor=none;" parent="1" vertex="1">
                    <mxGeometry x="20" y="590" width="590" height="990" as="geometry"/>
                </mxCell>
                <mxCell id="2" value="" style="shape=cylinder3;whiteSpace=wrap;html=1;boundedLbl=1;backgroundOutline=1;size=15;" vertex="1" parent="1">
                    <mxGeometry x="1275" y="1480" width="60" height="80" as="geometry"/>
                </mxCell>
                <mxCell id="3" value="Database" style="text;html=1;align=center;verticalAlign=middle;resizable=0;points=[];autosize=1;strokeColor=none;fillColor=none;" vertex="1" parent="1">
                    <mxGeometry x="1270" y="1570" width="70" height="30" as="geometry"/>
                </mxCell>
                <mxCell id="4" value="Frontend" style="rounded=1;whiteSpace=wrap;html=1;" vertex="1" parent="1">
                    <mxGeometry x="895" y="1500" width="120" height="60" as="geometry"/>
                </mxCell>
                <mxCell id="5" value="Backend" style="rounded=1;whiteSpace=wrap;html=1;" vertex="1" parent="1">
                    <mxGeometry x="1085" y="1500" width="120" height="60" as="geometry"/>
                </mxCell>
                <mxCell id="6" value="User" style="shape=umlActor;verticalLabelPosition=bottom;verticalAlign=top;html=1;outlineConnect=0;" vertex="1" parent="1">
                    <mxGeometry x="800" y="1500" width="30" height="60" as="geometry"/>
                </mxCell>
                <mxCell id="16" value="" style="endArrow=classic;startArrow=classic;html=1;" edge="1" parent="1">
                    <mxGeometry width="50" height="50" relative="1" as="geometry">
                        <mxPoint x="835" y="1530" as="sourcePoint"/>
                        <mxPoint x="885" y="1530" as="targetPoint"/>
                        <Array as="points">
                            <mxPoint x="855" y="1530"/>
                        </Array>
                    </mxGeometry>
                </mxCell>
                <mxCell id="17" value="" style="endArrow=classic;startArrow=classic;html=1;" edge="1" parent="1">
                    <mxGeometry width="50" height="50" relative="1" as="geometry">
                        <mxPoint x="1025" y="1529.66" as="sourcePoint"/>
                        <mxPoint x="1075" y="1529.66" as="targetPoint"/>
                        <Array as="points">
                            <mxPoint x="1045" y="1529.66"/>
                            <mxPoint x="1065" y="1529.66"/>
                        </Array>
                    </mxGeometry>
                </mxCell>
                <mxCell id="18" value="" style="endArrow=classic;startArrow=classic;html=1;" edge="1" parent="1">
                    <mxGeometry width="50" height="50" relative="1" as="geometry">
                        <mxPoint x="1210" y="1529.66" as="sourcePoint"/>
                        <mxPoint x="1260" y="1529.66" as="targetPoint"/>
                        <Array as="points">
                            <mxPoint x="1230" y="1529.66"/>
                            <mxPoint x="1250" y="1529.66"/>
                        </Array>
                    </mxGeometry>
                </mxCell>
                <mxCell id="24" style="edgeStyle=none;html=1;" edge="1" parent="1" source="19" target="20">
                    <mxGeometry relative="1" as="geometry"/>
                </mxCell>
                <mxCell id="19" value="resource" style="rounded=1;whiteSpace=wrap;html=1;" vertex="1" parent="1">
                    <mxGeometry x="1490" y="1060" width="120" height="60" as="geometry"/>
                </mxCell>
                <mxCell id="25" style="edgeStyle=none;html=1;" edge="1" parent="1" source="20" target="21">
                    <mxGeometry relative="1" as="geometry"/>
                </mxCell>
                <mxCell id="20" value="application" style="rounded=1;whiteSpace=wrap;html=1;" vertex="1" parent="1">
                    <mxGeometry x="1490" y="1150" width="120" height="60" as="geometry"/>
                </mxCell>
                <mxCell id="26" style="edgeStyle=none;html=1;" edge="1" parent="1" source="21" target="22">
                    <mxGeometry relative="1" as="geometry"/>
                </mxCell>
                <mxCell id="41" style="edgeStyle=none;html=1;exitX=1;exitY=0.25;exitDx=0;exitDy=0;" edge="1" parent="1" source="21">
                    <mxGeometry relative="1" as="geometry">
                        <mxPoint x="1700" y="1255" as="targetPoint"/>
                    </mxGeometry>
                </mxCell>
                <mxCell id="21" value="repositories" style="rounded=1;whiteSpace=wrap;html=1;" vertex="1" parent="1">
                    <mxGeometry x="1490" y="1240" width="120" height="60" as="geometry"/>
                </mxCell>
                <mxCell id="22" value="" style="shape=cylinder3;whiteSpace=wrap;html=1;boundedLbl=1;backgroundOutline=1;size=15;" vertex="1" parent="1">
                    <mxGeometry x="1520" y="1340" width="60" height="80" as="geometry"/>
                </mxCell>
                <mxCell id="23" value="Database" style="text;html=1;align=center;verticalAlign=middle;resizable=0;points=[];autosize=1;strokeColor=none;fillColor=none;" vertex="1" parent="1">
                    <mxGeometry x="1515" y="1430" width="70" height="30" as="geometry"/>
                </mxCell>
                <mxCell id="42" style="edgeStyle=none;html=1;exitX=0;exitY=0.5;exitDx=0;exitDy=0;" edge="1" parent="1" source="28">
                    <mxGeometry relative="1" as="geometry">
                        <mxPoint x="1620" y="1270" as="targetPoint"/>
                    </mxGeometry>
                </mxCell>
                <mxCell id="28" value="models" style="ellipse;whiteSpace=wrap;html=1;aspect=fixed;" vertex="1" parent="1">
                    <mxGeometry x="1710" y="1230" width="80" height="80" as="geometry"/>
                </mxCell>
                <mxCell id="34" value="" style="endArrow=none;html=1;" edge="1" parent="1">
                    <mxGeometry width="50" height="50" relative="1" as="geometry">
                        <mxPoint x="1410" y="1470" as="sourcePoint"/>
                        <mxPoint x="1410" y="1040" as="targetPoint"/>
                    </mxGeometry>
                </mxCell>
                <mxCell id="35" value="" style="endArrow=none;html=1;" edge="1" parent="1">
                    <mxGeometry width="50" height="50" relative="1" as="geometry">
                        <mxPoint x="1810" y="1470" as="sourcePoint"/>
                        <mxPoint x="1810" y="1040" as="targetPoint"/>
                    </mxGeometry>
                </mxCell>
                <mxCell id="36" value="" style="endArrow=none;html=1;" edge="1" parent="1">
                    <mxGeometry width="50" height="50" relative="1" as="geometry">
                        <mxPoint x="1410" y="1470" as="sourcePoint"/>
                        <mxPoint x="1810" y="1470" as="targetPoint"/>
                    </mxGeometry>
                </mxCell>
                <mxCell id="37" value="" style="endArrow=none;html=1;" edge="1" parent="1">
                    <mxGeometry width="50" height="50" relative="1" as="geometry">
                        <mxPoint x="1410" y="1040" as="sourcePoint"/>
                        <mxPoint x="1810" y="1040" as="targetPoint"/>
                    </mxGeometry>
                </mxCell>
                <mxCell id="38" value="&lt;b&gt;backend estructure (hexagonal):&lt;/b&gt;" style="text;html=1;align=center;verticalAlign=middle;resizable=0;points=[];autosize=1;strokeColor=none;fillColor=none;" vertex="1" parent="1">
                    <mxGeometry x="1480" y="1010" width="210" height="30" as="geometry"/>
                </mxCell>
                <mxCell id="40" value="&lt;b&gt;Resource (controlador HTTP):&lt;br&gt;&lt;/b&gt;Recebe as requisições HTTP e delega &lt;br&gt;para os serviços da aplicação.&lt;br&gt;&lt;br&gt;&lt;br&gt;&lt;strong&gt;Application (Serviço)&lt;/strong&gt;:&lt;br&gt;Contém a lógica de negócios e coordena &lt;br&gt;as operações entre os repositórios e os recursos.&lt;br&gt;&lt;br&gt;&lt;br&gt;&lt;strong&gt;Repository (Repositório)&lt;/strong&gt;:&lt;br&gt;Gerencia a persistência de dados, &lt;br&gt;realizando operações de CRUD no banco de dados&lt;br&gt;&lt;br&gt;&lt;br&gt;&lt;strong&gt;Model (Modelo)&lt;/strong&gt;:&lt;br&gt;Define a estrutura dos dados que são manipulados&lt;br&gt;&amp;nbsp;entre a aplicação e o banco de dados.&lt;br&gt;&lt;b&gt;&lt;br&gt;&lt;/b&gt;" style="text;html=1;align=left;verticalAlign=middle;resizable=0;points=[];autosize=1;strokeColor=none;fillColor=none;" vertex="1" parent="1">
                    <mxGeometry x="1820" y="1070" width="300" height="290" as="geometry"/>
                </mxCell>
                <mxCell id="43" value="dados" style="text;html=1;align=center;verticalAlign=middle;resizable=0;points=[];autosize=1;strokeColor=none;fillColor=none;" vertex="1" parent="1">
                    <mxGeometry x="1630" y="1230" width="60" height="30" as="geometry"/>
                </mxCell>
                <mxCell id="44" value="dados modelados" style="text;html=1;align=center;verticalAlign=middle;resizable=0;points=[];autosize=1;strokeColor=none;fillColor=none;" vertex="1" parent="1">
                    <mxGeometry x="1600" y="1270" width="120" height="30" as="geometry"/>
                </mxCell>
                <mxCell id="46" value="CRUD" style="text;html=1;align=center;verticalAlign=middle;resizable=0;points=[];autosize=1;strokeColor=none;fillColor=none;" vertex="1" parent="1">
                    <mxGeometry x="1490" y="1300" width="60" height="30" as="geometry"/>
                </mxCell>
                <mxCell id="47" value="RN" style="text;html=1;align=center;verticalAlign=middle;resizable=0;points=[];autosize=1;strokeColor=none;fillColor=none;" vertex="1" parent="1">
                    <mxGeometry x="1510" y="1210" width="40" height="30" as="geometry"/>
                </mxCell>
                <mxCell id="48" value="Req" style="text;html=1;align=center;verticalAlign=middle;resizable=0;points=[];autosize=1;strokeColor=none;fillColor=none;" vertex="1" parent="1">
                    <mxGeometry x="1500" y="1120" width="50" height="30" as="geometry"/>
                </mxCell>
                <mxCell id="49" value="&lt;i&gt;&lt;font color=&quot;#828282&quot;&gt;&lt;sup&gt;req: requisição&amp;nbsp; RN: regras de negocios&lt;/sup&gt;&lt;/font&gt;&lt;/i&gt;" style="text;html=1;align=left;verticalAlign=middle;resizable=0;points=[];autosize=1;strokeColor=none;fillColor=none;" vertex="1" parent="1">
                    <mxGeometry x="1620" y="1040" width="200" height="30" as="geometry"/>
                </mxCell>
            </root>
        </mxGraphModel>
    </diagram>
</mxfile>